<svg width="42" height="42" viewBox="0 0 42 42" fill="none" xmlns="http://www.w3.org/2000/svg">
<path d="M25.4375 13.625H33.625V15.25H25.4375V13.625ZM25.4375 20.1875H33.625V21.8125H25.4375V20.1875ZM25.4375 26.75H33.625V28.375H25.4375V26.75ZM8.375 13.625H16.5625V15.25H8.375V13.625ZM8.375 20.1875H16.5625V21.8125H8.375V20.1875ZM8.375 26.75H16.5625V28.375H8.375V26.75Z" fill="black" stroke="white"/>
<path d="M5.25 8.6875H4.75V9.1875V32.8125V33.3125H5.25H19.6875H20.1875V32.8125V9.1875V8.6875H19.6875H5.25ZM21.8125 32.8125V33.3125H22.3125H36.75H37.25V32.8125V9.1875V8.6875H36.75H22.3125H21.8125V9.1875V32.8125ZM5.25 7.0625H36.75C37.3136 7.0625 37.8541 7.28638 38.2526 7.6849C38.6511 8.08341 38.875 8.62391 38.875 9.1875V32.8125C38.875 33.3761 38.6511 33.9166 38.2526 34.3151C37.8541 34.7136 37.3136 34.9375 36.75 34.9375H5.25C4.68641 34.9375 4.14591 34.7136 3.7474 34.3151C3.34888 33.9166 3.125 33.3761 3.125 32.8125V9.1875C3.125 8.62391 3.34888 8.08341 3.7474 7.6849C4.14591 7.28638 4.68641 7.0625 5.25 7.0625Z" fill="white" stroke="white"/>
</svg>
