<svg width="21" height="22" viewBox="0 0 21 22" fill="none" xmlns="http://www.w3.org/2000/svg">
<path d="M16.5 1V3M4.5 1V3M1.5 7H19.5M1 11.243C1 6.886 1 4.707 2.252 3.353C3.504 2 5.52 2 9.55 2H11.45C15.48 2 17.496 2 18.748 3.354C20 4.707 20 6.886 20 11.244V11.757C20 16.114 20 18.293 18.748 19.647C17.496 21 15.48 21 11.45 21H9.55C5.52 21 3.504 21 2.252 19.646C1 18.293 1 16.114 1 11.756V11.243Z" stroke="#0070AA" stroke-width="1.5" stroke-linecap="round" stroke-linejoin="round"/>
<path d="M7.5 14H13.5M7.5 14C7.5 13.3 9.494 11.992 10 11.5M7.5 14C7.5 14.7 9.494 16.009 10 16.5" stroke="#0070AA" stroke-width="1.5" stroke-linecap="round" stroke-linejoin="round"/>
</svg>
