<svg width="35" height="40" viewBox="0 0 35 40" fill="none" xmlns="http://www.w3.org/2000/svg">
<path fill-rule="evenodd" clip-rule="evenodd" d="M17.5 0C22.1413 0 26.5925 1.84374 29.8744 5.12563C33.1563 8.40752 35 12.8587 35 17.5C35 23.4772 31.7411 28.3694 28.3072 31.8792C26.5916 33.6137 24.7196 35.1863 22.715 36.5769L21.8867 37.1408L21.4978 37.3994L20.7647 37.8661L20.1114 38.2647L19.3025 38.7353C18.7535 39.0487 18.1322 39.2135 17.5 39.2135C16.8678 39.2135 16.2465 39.0487 15.6975 38.7353L14.8886 38.2647L13.8775 37.6425L13.5042 37.3994L12.7069 36.8686C10.5444 35.4055 8.53009 33.7344 6.69278 31.8792C3.25889 28.3675 0 23.4772 0 17.5C0 12.8587 1.84374 8.40752 5.12563 5.12563C8.40752 1.84374 12.8587 0 17.5 0ZM17.5 3.88889C13.8901 3.88889 10.4281 5.32291 7.87549 7.87549C5.32291 10.4281 3.88889 13.8901 3.88889 17.5C3.88889 22.015 6.36222 25.9778 9.47139 29.1589C10.8083 30.5122 12.2532 31.7543 13.7919 32.8728L14.6825 33.5067C14.9703 33.7076 15.247 33.8943 15.5128 34.0667L16.2711 34.5528L16.9381 34.9592L17.5 35.2878L18.3847 34.7647L19.0983 34.3175C19.4781 34.0764 19.8845 33.8061 20.3175 33.5067L21.2081 32.8728C22.7468 31.7543 24.1917 30.5122 25.5286 29.1589C28.6378 25.9797 31.1111 22.015 31.1111 17.5C31.1111 13.8901 29.6771 10.4281 27.1245 7.87549C24.5719 5.32291 21.1099 3.88889 17.5 3.88889ZM17.5 9.72222C19.5628 9.72222 21.5411 10.5417 22.9997 12.0003C24.4583 13.4589 25.2778 15.4372 25.2778 17.5C25.2778 19.5628 24.4583 21.5411 22.9997 22.9997C21.5411 24.4583 19.5628 25.2778 17.5 25.2778C15.4372 25.2778 13.4589 24.4583 12.0003 22.9997C10.5417 21.5411 9.72222 19.5628 9.72222 17.5C9.72222 15.4372 10.5417 13.4589 12.0003 12.0003C13.4589 10.5417 15.4372 9.72222 17.5 9.72222ZM17.5 13.6111C16.4686 13.6111 15.4794 14.0208 14.7501 14.7501C14.0208 15.4795 13.6111 16.4686 13.6111 17.5C13.6111 18.5314 14.0208 19.5206 14.7501 20.2499C15.4794 20.9792 16.4686 21.3889 17.5 21.3889C18.5314 21.3889 19.5205 20.9792 20.2499 20.2499C20.9792 19.5206 21.3889 18.5314 21.3889 17.5C21.3889 16.4686 20.9792 15.4795 20.2499 14.7501C19.5205 14.0208 18.5314 13.6111 17.5 13.6111Z" fill="#E4EAEA"/>
</svg>
