<svg width="34" height="27" viewBox="0 0 34 27" fill="none" xmlns="http://www.w3.org/2000/svg">
<path d="M22.1 19.75L22.0988 19.75C21.7441 19.7508 21.4697 19.637 21.2418 19.4108C21.0141 19.1848 20.9 18.9133 20.9 18.5625L20.9 8.43869C20.9 8.43844 20.9 8.4382 20.9 8.43795C20.901 8.08808 21.0153 7.81656 21.2425 7.59024C21.469 7.36457 21.7434 7.25 22.1 7.25H27.1994C27.5552 7.25095 27.8305 7.3657 28.0588 7.59147C28.2859 7.81617 28.4 8.08675 28.4 8.4375L28.4 18.5625L28.4 18.5637C28.4008 18.9126 28.2875 19.1832 28.0599 19.4091C27.8319 19.6354 27.5566 19.75 27.2 19.75L22.1 19.75ZM23.3 16.875V17.375H23.8H25.5H26V16.875V10.125V9.625H25.5H23.8H23.3V10.125V16.875ZM11.9 19.75L11.8988 19.75C11.5441 19.7508 11.2697 19.637 11.0418 19.4108C10.8141 19.1848 10.7 18.9133 10.7 18.5625L10.7 8.43869C10.7 8.43856 10.7 8.43843 10.7 8.4383C10.7009 8.08826 10.8152 7.81664 11.0425 7.59024C11.269 7.36457 11.5434 7.25 11.9 7.25H16.9994C17.3552 7.25095 17.6305 7.3657 17.8588 7.59147C18.0859 7.81617 18.2 8.08675 18.2 8.4375L18.2 18.5625L18.2 18.5637C18.2008 18.9126 18.0875 19.1832 17.8599 19.4091C17.6319 19.6354 17.3566 19.75 17 19.75L11.9 19.75ZM13.1 16.875V17.375H13.6H15.3H15.8V16.875V10.125V9.625H15.3H13.6H13.1V10.125V16.875ZM2.9 23.625V24.125H3.4H30.6H31.1V23.625V3.375V2.875H30.6H3.4H2.9V3.375V23.625ZM8 7.25V19.75H5.6V7.25H8ZM0.5 26.5V0.5H33.5V26.5H0.5Z" fill="#E4EAEA" stroke="#E4EAEA"/>
</svg>
