<svg width="29" height="29" viewBox="0 0 29 29" fill="none" xmlns="http://www.w3.org/2000/svg">
<rect width="29" height="29" rx="14.5" fill="#71787B"/>
<path fill-rule="evenodd" clip-rule="evenodd" d="M15.5932 25.258L15.5822 25.26L15.5112 25.295L15.4912 25.299L15.4772 25.295L15.4062 25.26C15.3955 25.2567 15.3875 25.2583 15.3822 25.265L15.3782 25.275L15.3612 25.703L15.3662 25.723L15.3762 25.736L15.4802 25.81L15.4952 25.814L15.5072 25.81L15.6112 25.736L15.6232 25.72L15.6272 25.703L15.6102 25.276C15.6075 25.2653 15.6018 25.2593 15.5932 25.258ZM15.8582 25.145L15.8452 25.147L15.6602 25.24L15.6502 25.25L15.6472 25.261L15.6652 25.691L15.6702 25.703L15.6782 25.71L15.8792 25.803C15.8918 25.8063 15.9015 25.8037 15.9082 25.795L15.9122 25.781L15.8782 25.167C15.8748 25.155 15.8682 25.1477 15.8582 25.145ZM15.1432 25.147C15.1388 25.1443 15.1335 25.1435 15.1285 25.1446C15.1234 25.1457 15.119 25.1487 15.1162 25.153L15.1102 25.167L15.0762 25.781C15.0768 25.793 15.0825 25.801 15.0932 25.805L15.1082 25.803L15.3092 25.71L15.3192 25.702L15.3232 25.691L15.3402 25.261L15.3372 25.249L15.3272 25.239L15.1432 25.147Z" fill="#EEEDEB"/>
<path fill-rule="evenodd" clip-rule="evenodd" d="M15 4C9.477 4 5 8.477 5 14C5 19.523 9.477 24 15 24C20.523 24 25 19.523 25 14C25 8.477 20.523 4 15 4ZM7 14C7.00032 12.335 7.52012 10.7116 8.48694 9.35612C9.45376 8.00061 10.8194 6.98053 12.3935 6.43807C13.9677 5.89561 15.6718 5.8578 17.2685 6.32992C18.8651 6.80204 20.2747 7.76056 21.3006 9.07186C22.3266 10.3832 22.9179 11.9819 22.9921 13.6452C23.0662 15.3086 22.6196 16.9536 21.7144 18.351C20.8091 19.7484 19.4905 20.8285 17.9422 21.4409C16.3939 22.0532 14.6932 22.1672 13.077 21.767L13.795 18.393C14.482 18.989 15.335 19.216 16.154 19.201C17.052 19.184 17.954 18.881 18.709 18.406C19.461 17.933 20.133 17.246 20.501 16.399C20.8988 15.4859 21.063 14.4882 20.9788 13.4958C20.8947 12.5034 20.5648 11.5475 20.019 10.7145C19.4731 9.88139 18.7285 9.1973 17.8523 8.72389C16.976 8.25048 15.9957 8.00264 14.9997 8.00273C14.0038 8.00282 13.0235 8.25084 12.1473 8.72441C11.2712 9.19798 10.5267 9.88221 9.98099 10.7154C9.43531 11.5485 9.10562 12.5045 9.02165 13.4969C8.93767 14.4893 9.10207 15.487 9.5 16.4C9.54979 16.5243 9.62404 16.6373 9.71835 16.7324C9.81266 16.8275 9.92509 16.9026 10.049 16.9534C10.1729 17.0042 10.3057 17.0296 10.4396 17.0281C10.5735 17.0266 10.7058 16.9982 10.8285 16.9446C10.9512 16.891 11.0619 16.8133 11.154 16.7161C11.2462 16.6189 11.3178 16.5043 11.3648 16.3788C11.4117 16.2534 11.433 16.1199 11.4274 15.9861C11.4218 15.8523 11.3893 15.721 11.332 15.6C11.095 15.0551 10.9823 14.4642 11.0023 13.8703C11.0222 13.2764 11.1742 12.6944 11.4472 12.1666C11.7203 11.6388 12.1075 11.1785 12.5807 10.819C13.0539 10.4596 13.6013 10.2102 14.183 10.0888C14.7647 9.96741 15.3661 9.97717 15.9436 10.1173C16.5211 10.2575 17.06 10.5246 17.5213 10.8992C17.9827 11.2737 18.3547 11.7464 18.6105 12.2828C18.8663 12.8191 18.9993 13.4058 19 14C19 15.095 18.59 16.117 17.643 16.713C17.155 17.021 16.604 17.193 16.117 17.201C15.64 17.211 15.275 17.067 15.022 16.802C14.774 16.542 14.501 16.04 14.501 15.1C14.501 14.5 14.73 14 15.004 12.708C15.0337 12.5787 15.0373 12.4448 15.0147 12.3141C14.9921 12.1834 14.9437 12.0584 14.8723 11.9466C14.801 11.8348 14.7081 11.7383 14.5991 11.6627C14.4901 11.5871 14.3671 11.5339 14.2373 11.5063C14.1076 11.4788 13.9736 11.4773 13.8433 11.5019C13.7129 11.5266 13.5888 11.577 13.4781 11.6501C13.3674 11.7232 13.2724 11.8176 13.1986 11.9278C13.1247 12.038 13.0735 12.1618 13.048 12.292L11.188 21.035C9.92101 20.3483 8.86304 19.3321 8.12587 18.0938C7.3887 16.8555 6.99971 15.4411 7 14Z" fill="#EEEDEB"/>
</svg>
