<svg width="29" height="29" viewBox="0 0 29 29" fill="none" xmlns="http://www.w3.org/2000/svg">
<rect width="29" height="29" rx="14.5" fill="#71787B"/>
<path d="M19.44 8.82C18.7566 8.03953 18.3799 7.0374 18.38 6H15.29V18.4C15.2667 19.0712 14.9835 19.7071 14.5003 20.1735C14.0171 20.6399 13.3716 20.9004 12.7 20.9C11.28 20.9 10.1 19.74 10.1 18.3C10.1 16.58 11.76 15.29 13.47 15.82V12.66C10.02 12.2 7 14.88 7 18.3C7 21.63 9.76 24 12.69 24C15.83 24 18.38 21.45 18.38 18.3V12.01C19.633 12.9099 21.1374 13.3926 22.68 13.39V10.3C22.68 10.3 20.8 10.39 19.44 8.82Z" fill="#EEEDEB"/>
</svg>
