<svg width="29" height="29" viewBox="0 0 29 29" fill="none" xmlns="http://www.w3.org/2000/svg">
<rect width="29" height="29" rx="14.5" fill="#71787B"/>
<path d="M24.92 8C24.15 8.35 23.32 8.58 22.46 8.69C23.34 8.16 24.02 7.32 24.34 6.31C23.51 6.81 22.59 7.16 21.62 7.36C20.83 6.5 19.72 6 18.46 6C16.11 6 14.19 7.92 14.19 10.29C14.19 10.63 14.23 10.96 14.3 11.27C10.74 11.09 7.57 9.38 5.46 6.79C5.09 7.42 4.88 8.16 4.88 8.94C4.88 10.43 5.63 11.75 6.79 12.5C6.08 12.5 5.42 12.3 4.84 12V12.03C4.84 14.11 6.32 15.85 8.28 16.24C7.65084 16.4129 6.99004 16.4369 6.35 16.31C6.62161 17.1625 7.15354 17.9084 7.87102 18.4429C8.5885 18.9775 9.45545 19.2737 10.35 19.29C8.83367 20.4905 6.95401 21.1394 5.02 21.13C4.68 21.13 4.34 21.11 4 21.07C5.9 22.29 8.16 23 10.58 23C18.46 23 22.79 16.46 22.79 10.79C22.79 10.6 22.79 10.42 22.78 10.23C23.62 9.63 24.34 8.87 24.92 8Z" fill="white"/>
</svg>
